<?xml version="1.0" encoding="utf-8"?>
<!-- Generator: Adobe Illustrator 19.2.1, SVG Export Plug-In . SVG Version: 6.00 Build 0)  -->
<svg version="1.1" id="Layer_1" xmlns="http://www.w3.org/2000/svg" xmlns:xlink="http://www.w3.org/1999/xlink" x="0px" y="0px"
	 viewBox="0 0 600 513" style="enable-background:new 0 0 600 513;" xml:space="preserve">
<style type="text/css">
	.st0{fill:#64696E;}
	.st1{fill:#E05326;}
</style>
<g>
	<path class="st0" d="M283.2,295.7h7.1v-21.9h25.4v21.9h7.1V214h-39.7V295.7z M312.1,220.1h3.7v4.9h-3.7V220.1z M312.1,234.2h3.7
		v4.9h-3.7V234.2z M312.1,248.2h3.7v4.9h-3.7V248.2z M312.1,262.3h3.7v4.9h-3.7V262.3z M301.2,220.1h3.7v4.9h-3.7V220.1z
		 M301.2,234.2h3.7v4.9h-3.7V234.2z M301.2,248.2h3.7v4.9h-3.7V248.2z M301.2,262.3h3.7v4.9h-3.7V262.3z M290.4,220.1h3.7v4.9h-3.7
		V220.1z M290.4,234.2h3.7v4.9h-3.7V234.2z M290.4,248.2h3.7v4.9h-3.7V248.2z M290.4,262.3h3.7v4.9h-3.7V262.3z"/>
	<rect x="294" y="277.5" class="st1" width="17.9" height="18.3"/>
	<path class="st0" d="M326.6,295.7H344v-62.1l-17.4-17.1V295.7z M336.3,238h3.7v6.6h-3.7V238z M336.3,251.6h3.7v6.6h-3.7V251.6z
		 M336.3,265.1h3.7v6.6h-3.7V265.1z M336.3,278.5h3.7v6.6h-3.7V278.5z M329.3,233.3h3.7v6.6h-3.7V233.3z M329.3,246.7h3.7v6.6h-3.7
		V246.7z M329.3,260.3h3.7v6.6h-3.7V260.3z M329.3,273.6h3.7v6.6h-3.7V273.6z"/>
	<path class="st0" d="M279.6,216.6l-17.4,17.1v62.1h17.4V216.6z M269.5,285.1h-3.7v-6.6h3.7V285.1z M269.5,271.7h-3.7v-6.6h3.7
		V271.7z M269.5,258.2h-3.7v-6.6h3.7V258.2z M269.5,244.6h-3.7V238h3.7V244.6z M276.4,280.4h-3.7v-6.6h3.7V280.4z M276.4,266.9h-3.7
		v-6.6h3.7V266.9z M276.4,253.3h-3.7v-6.6h3.7V253.3z M276.4,239.9h-3.7v-6.6h3.7V239.9z"/>
</g>
</svg>
