<svg xmlns="http://www.w3.org/2000/svg" viewBox="0 0 633.29 338.9"><defs><style>.cls-1{fill:#fff;}</style></defs><title>Asset 1</title><g id="Layer_2" data-name="Layer 2"><g id="Layer_1-2" data-name="Layer 1"><path class="cls-1" d="M294.21,175.29H180.37V4.68H294.1V33.77H210V75.16h70v29.32H210v41.1h84.17Z"/><path class="cls-1" d="M541.26,175.28V4.64h29.13v141h62.9v29.68Z"/><path class="cls-1" d="M460.12,324.71l-24.6,12.12c-5.43-16.25-4.77-32.56-4.37-49.55l29-14Z"/><path class="cls-1" d="M152.73,329.47H144c0-3,0-5.56,0-8.17-.14-13.81.2-27.66-.62-41.43-.47-8.05-4.78-12.09-10.85-13-9.84-1.44-17.58,1.67-20.57,9.27a47.28,47.28,0,0,0-3.24,15c-.51,11.47-.23,23-.31,34.47a35,35,0,0,1-.48,3.79h-7.31V260.86l7.33-.35c.32,2.87.57,5.08.9,8,6-6.4,12.63-9.69,21.07-9.39,11.62.4,19.54,5.28,20.67,16.74C152.3,293.49,152.09,311.3,152.73,329.47Z"/><path class="cls-1" d="M166.49,261l7.49-1.08c0-10.16-.09-20.26.05-30.35a54,54,0,0,1,1.09-11.87C177.57,207.59,190,202,199,206.9a12.9,12.9,0,0,1,.37,2.29,35.2,35.2,0,0,1-.36,3.58c-1.88,0-3.63.11-5.38,0-5.77-.41-10.12,2.49-10.39,7.79-.67,13-.22,26.1-.22,39.79h15.82c.21,2.6.37,4.61.59,7.37H182.17v61.83h-8V268.42l-7.66-1Z"/><path class="cls-1" d="M533.71,261.48h9.74l-25.93,32.38L546,330.26h-9.5l-24.4-30.46c-8.26,10.42-16.27,20.5-24.17,30.47h-9.56c9.94-12.7,19.1-24.41,28.51-36.42l-25.91-32.29h9.69l21.47,26.49C519.6,278.83,526.7,270.11,533.71,261.48Z"/><path class="cls-1" d="M383.42,274.54l30.64,9.55v27.06l-30.64,12.36Z"/><path class="cls-1" d="M457.94,272c-10.35,5-19.42,9.36-28.57,13.59a6.06,6.06,0,0,1-3.89-.11c-13.17-4.07-26.31-8.23-39.45-12.38a27.09,27.09,0,0,1-2.83-1.46c10.67-3.93,20.37-7.71,30.24-11,1.89-.62,4.48.77,6.71,1.33q16.19,4.08,32.34,8.22C453.87,270.6,455.2,271.12,457.94,272Z"/><path class="cls-1" d="M429.16,315.85c1.29,7.79,2.47,14.89,3.82,23l-46.15-13.82a51.72,51.72,0,0,1,4.69-2.6c6.29-2.6,12.83-4.71,18.88-7.79C417.08,311.3,422.83,313.6,429.16,315.85Z"/><path class="cls-1" d="M68.35,260.72h6.82v68.74H68.35Z"/><path class="cls-1" d="M72,244.94c-4.34-.26-6.86-2.44-6.84-6.55s2.67-6.53,6.69-6.52,6.62,2.39,6.59,6.57S75.9,244.71,72,244.94Z"/><path class="cls-1" d="M80,102.66c2.88-1.26,5-2.14,7.11-3.11,17.42-8.07,26.32-22,27.26-40.87,1-19.92-6.06-35.87-24.2-45.74a73,73,0,0,0-35-8.63c-16.16-.1-32.32,0-48.49,0-1.94,0-3.88.25-6.64.43v170.1H32.78v-68H43.69c1.15,1.81,2.24,3.48,3.28,5.17,12.05,19.57,24,39.21,36.3,58.61A11.68,11.68,0,0,0,91,175.49c8.79.62,17.65.3,26.48.18,1.64,0,3.28-.83,6.16-1.61C108.79,149.78,94.47,126.36,80,102.66ZM65.58,73c-10.68.94-21.51.21-33.06.21V36.82c6.63,0,13-.11,19.47,0,5,.11,10,0,14.84,1,10.53,2.19,15.42,8.43,15.06,18C81.55,64.94,75.61,72.13,65.58,73Z"/><path class="cls-1" d="M422.41.06,420.84,0c-22.56,58.24-45.11,116.48-67.9,175.3h137.6Zm-.72,69.19,30.08,76.86H391.71C401.65,120.64,411.38,95.68,421.69,69.25Z"/><path class="cls-1" d="M353.27,271a30.05,30.05,0,0,0-19.37-11.35c-12.37-2-23.71.61-34,11.19V207.53h-7.47v122h7.1c.38-3.07.73-5.91,1.11-9,18.62,13.81,37.3,14.17,49.93,1.29C363.6,308.57,364.81,285.78,353.27,271Zm-26.89,52.62c-15.79-.08-26.92-12.15-26.78-29.05.13-16.41,11.14-27.85,26.8-27.87,15.14,0,26.6,12.15,26.59,28.24C353,311.65,341.77,323.73,326.38,323.64Z"/><path class="cls-1" d="M240,259.22c-20.72.08-36.93,15.84-36.95,35.92,0,19.83,16.79,36.37,36.88,36.31,20.84-.07,37.28-16.19,37.16-36.45S260.79,259.14,240,259.22Zm-.63,64.39c-16,0-28-12.32-28-28.67.06-16.18,12.27-28.27,28.47-28.2,16.64.06,29.18,12.55,29.06,28.94C268.85,311.48,256,323.62,239.41,323.61Z"/></g></g></svg>
