<?xml version="1.0" encoding="utf-8"?>
<!-- Generator: Adobe Illustrator 24.0.2, SVG Export Plug-In . SVG Version: 6.00 Build 0)  -->
<svg version="1.1" id="Layer_1" xmlns="http://www.w3.org/2000/svg" xmlns:xlink="http://www.w3.org/1999/xlink" x="0px" y="0px"
	 viewBox="0 0 128 128" style="enable-background:new 0 0 128 128;" xml:space="preserve">
<style type="text/css">
	.st0{fill:#4F84AC;}
</style>
<path class="st0" d="M64,0C28.7,0,0,28.7,0,64s28.7,64,64,64s64-28.7,64-64S99.3,0,64,0z M46.1,96.4c-4.5,0-9,0-13.4,0
	c0-14.3,0-28.7,0-43c0-0.1,0-0.3,0.1-0.3c4.5,0,9,0,13.4,0C46.1,67.5,46.1,81.9,46.1,96.4z M34.9,46c-2-1.4-3.7-4.4-3.3-7.8
	c0.4-2.6,2.2-4.7,4.1-5.8c0.6-0.4,1.5-0.6,2.6-0.6c5.1-0.6,9,2.9,9,7.8C47.1,45.4,40.3,49.5,34.9,46z M96.5,96.4c-4.5,0-9,0-13.4,0
	c0-4.9,0-10,0-15.5c0-6.5,0.9-14.1-3.6-16.4c-2.2-1.2-5.1-0.8-7,0c-4.9,2.2-4.5,9.1-4.5,16.6c0,5.2,0,10.8,0,15.2c-4.5,0-9,0-13.4,0
	c0-14.5,0-28.9,0-43.3c4.4,0,8.6,0,12.9,0c0,1.9,0,4,0,5.9c0.5-0.4,0.6-0.9,1-1.4c2.3-3.1,6.4-5.6,11.6-5.6c6.7,0,11.4,2.3,13.8,6.5
	c2.6,4.5,2.6,10.8,2.6,17.8C96.5,82.8,96.5,90,96.5,96.4z"/>
</svg>
